<?xml version="1.0" encoding="UTF-8"?>
<!DOCTYPE svg PUBLIC "-//W3C//DTD SVG 1.1//EN" "http://www.w3.org/Graphics/SVG/1.1/DTD/svg11.dtd">
<!-- Creator: CorelDRAW 2021 (64-Bit) -->
<svg xmlns="http://www.w3.org/2000/svg" xml:space="preserve" width="92.3516mm" height="74.0079mm" version="1.1" style="shape-rendering:geometricPrecision; text-rendering:geometricPrecision; image-rendering:optimizeQuality; fill-rule:evenodd; clip-rule:evenodd"
viewBox="0 0 2378.58 1906.13"
 xmlns:xlink="http://www.w3.org/1999/xlink"
 xmlns:xodm="http://www.corel.com/coreldraw/odm/2003">
 <defs>
  <style type="text/css">
   <![CDATA[
    .fil0 {fill:#F1623F}
   ]]>
  </style>
 </defs>
 <g id="Capa_x0020_1">
  <metadata id="CorelCorpID_0Corel-Layer"/>
  <path class="fil0" d="M1102.38 1901.85c-594.33,31.14 -1087.85,-111.22 -1102.07,-317.91 -5.9,-85.66 71.51,-168.93 206.41,-239.31 -55.35,52.09 -84.3,108.02 -80.38,165.05 15.08,219.22 509.3,371.75 1103.63,340.61 283.65,-14.86 538.88,-68.89 726.61,-145.13 -189.84,102.13 -500.01,178.14 -854.21,196.69zm-73.42 -1900.32c487.43,-16.81 888.95,107.03 896.63,276.54 3.18,70.24 -61.82,137.32 -173.68,193 46.34,-41.86 71.13,-87.24 69.01,-134.01 -8.14,-179.79 -410.04,-311.96 -897.47,-295.15 -232.63,8.02 -442.73,48.54 -597.98,108.25 157.47,-80.89 413,-138.6 703.49,-148.62zm442.13 494.43c27.25,0.79 40.5,12.98 39.73,36.54 8.23,14.76 20.4,21.07 36.53,18.91 16.41,-6.94 18.59,-23.78 6.54,-50.56 -13.05,-27.05 -40.66,-28.68 -82.8,-4.9zm-1228.48 433.36c71.99,-272.53 231.98,-501.21 479.92,-686.03 -252.14,74.3 -484.94,255.02 -698.39,542.16 29.4,26.02 55.31,28.52 77.71,7.49 48.35,-30.53 85.24,-28.76 110.67,5.27 -6.81,75.45 3.21,119.16 30.09,131.11zm-104.43 -338.9c101.77,-124.7 234.65,-236.31 398.63,-334.81 -151.15,34.92 -300.8,86.68 -448.92,155.24 -3.04,32.02 13.99,51.47 51.09,58.33 -28.26,67.68 -28.53,108.1 -0.79,121.24zm1109.59 852.24c103.08,139.1 231.23,226.25 384.44,261.46 125.47,21.5 228.8,-13.97 310.02,-106.44 81.75,-106.51 113.67,-214.66 95.72,-324.45 -12.83,-70.02 -36.4,-136.53 -70.71,-199.53 177.56,-21.79 285.78,25.76 324.67,142.61 30.72,108.52 9.83,172.76 -62.7,192.71 -57.78,13.6 -91.6,-1.14 -101.45,-44.25 0.53,-14.04 7.81,-27.04 21.82,-38.99 14.01,-19.22 9.14,-37.11 -14.6,-53.65 8.62,19.8 0.3,30.29 -24.92,31.43 -32.93,36.28 -31.49,78.9 4.32,127.83 61.84,60.11 137.76,48.83 227.76,-33.86 44.67,-61.39 48.27,-138.56 10.78,-231.49 -101.08,-183.31 -254.18,-242.98 -459.27,-179.02 -95.98,-102.13 -252.01,-149.66 -468.09,-142.58 -219.39,12.16 -345.05,-27.31 -376.94,-118.42 -41.13,-138.72 54.47,-207.21 286.8,-205.5 26.31,70.96 95.42,113.36 207.34,127.17 29.24,28.28 62.43,46.4 99.53,54.38 -1.79,22.47 3.15,44.87 14.82,67.18 51.65,-11.77 82.21,-32.04 91.67,-60.8 5.32,-16.14 3.99,-34.96 -3.97,-56.44 -33.52,-51.81 -79.06,-93.36 -136.61,-124.66 8.08,-66.34 -33.5,-116.35 -124.74,-150.06 -85.63,-10.77 -165.11,-78.85 -238.42,-204.27 -23.26,-36.27 -49.09,-60.03 -77.48,-71.27 -9.08,34.69 3.44,73.76 37.55,117.21 25.29,36.74 50.57,73.49 75.85,110.23 -210.44,-34.54 -365.87,44.79 -466.27,237.96 -47.36,-21.89 -62.64,-68.86 -45.86,-140.9 18.91,-61.42 71.59,-113.12 158.03,-155.13 57.36,12.22 83.51,1.25 78.45,-32.92 -9.92,-49.29 -43.75,-64.6 -101.47,-45.94 -218.33,117.67 -379.8,264.99 -484.42,441.93 -94.8,147.07 -142.34,307.06 -142.62,479.94 67.06,-228.13 227.99,-361.97 482.8,-401.5 12.45,99.2 74.56,180.97 186.3,245.3 94.99,69.58 259.58,97.93 493.78,85.02 218.12,-5.42 342.87,78.96 374.26,253.16 11.65,86.3 -8.47,156.69 -111.24,186.56 -102.77,29.86 -218.47,-28.82 -302.51,-149.61 102.23,-58.99 204.45,-117.98 306.68,-176.97 -19.52,-33.7 -57.11,-57.65 -112.76,-71.85 -82.96,13.05 -217.19,82.25 -402.64,207.58 -161.73,98.43 -251.9,166.99 -389.65,199.95 -137.74,32.95 -274.76,-1.2 -295.91,-95.8 -15.74,-91.31 69.67,-171.37 236.37,-199.85 166.69,-28.48 293.76,16.7 404.98,94.5 49.08,-29.74 98.18,-59.48 147.27,-89.21 -84.4,-85.56 -198.92,-134.74 -343.59,-147.56 -265.47,-14.78 -452.16,34.6 -560.11,148.15 -125.33,124.98 -142.91,250.93 -52.75,377.83 68.04,70.47 141.2,112.81 219.46,127.03 157.4,49.76 387.48,-38.32 690.25,-264.22z"/>
 </g>
</svg>
