<?xml version="1.0" encoding="UTF-8"?>
<!DOCTYPE svg PUBLIC "-//W3C//DTD SVG 1.1//EN" "http://www.w3.org/Graphics/SVG/1.1/DTD/svg11.dtd">
<!-- Creator: CorelDRAW X7 -->
<svg xmlns="http://www.w3.org/2000/svg" xml:space="preserve" width="92.3516mm" height="74.0079mm" version="1.1" style="shape-rendering:geometricPrecision; text-rendering:geometricPrecision; image-rendering:optimizeQuality; fill-rule:evenodd; clip-rule:evenodd"
viewBox="0 0 1527 1224"
 xmlns:xlink="http://www.w3.org/1999/xlink">
 <defs>
  <style type="text/css">
   <![CDATA[
    .fil0 {fill:#F1623F}
   ]]>
  </style>
 </defs>
 <g id="Capa_x0020_1">
  <metadata id="CorelCorpID_0Corel-Layer"/>
  <path class="fil0" d="M708 1221c-382,20 -699,-72 -708,-204 -4,-55 46,-109 133,-154 -36,34 -54,70 -52,106 10,141 327,239 709,219 182,-10 346,-44 466,-93 -122,65 -321,114 -548,126zm-47 -1220c312,-11 570,69 575,178 2,45 -40,88 -111,123 29,-26 45,-56 44,-86 -5,-115 -263,-200 -576,-189 -150,5 -284,31 -384,69 101,-52 265,-89 452,-95zm283 317c18,1 26,9 26,24 5,9 13,13 23,12 11,-4 12,-15 5,-32 -9,-18 -27,-19 -54,-4zm-788 279c46,-175 149,-322 308,-441 -162,48 -311,164 -449,348 19,17 36,19 50,5 31,-20 55,-18 71,3 -4,49 2,77 20,85zm-67 -218c65,-80 150,-152 256,-215 -97,22 -193,56 -289,100 -2,20 9,33 33,37 -18,44 -18,70 0,78zm712 547c66,89 148,145 247,168 80,14 147,-9 199,-68 52,-69 73,-138 61,-209 -8,-45 -23,-87 -45,-128 114,-14 183,17 208,92 20,69 7,111 -40,124 -37,8 -59,-1 -65,-29 0,-9 5,-17 14,-25 9,-12 6,-24 -9,-34 5,12 0,19 -16,20 -22,23 -21,50 2,82 40,38 89,31 147,-22 28,-39 31,-89 6,-148 -64,-118 -163,-156 -294,-115 -62,-66 -162,-96 -301,-92 -141,8 -221,-17 -242,-76 -26,-89 35,-133 184,-132 17,46 62,73 133,82 19,18 40,30 64,35 -1,14 2,28 10,43 33,-8 53,-21 59,-39 3,-11 2,-23 -3,-36 -21,-34 -51,-60 -88,-80 6,-43 -21,-75 -80,-97 -55,-7 -106,-50 -153,-131 -15,-23 -31,-38 -49,-46 -6,23 2,48 24,76 16,23 32,47 48,70 -135,-22 -235,29 -299,153 -30,-14 -40,-44 -29,-90 12,-40 45,-73 101,-100 37,8 54,1 50,-21 -6,-32 -28,-42 -65,-30 -140,76 -244,171 -311,284 -61,95 -91,197 -91,308 43,-146 146,-232 310,-258 8,64 47,117 119,158 61,45 167,63 317,55 140,-4 220,50 240,162 8,55 -5,101 -71,120 -66,19 -140,-19 -194,-96 65,-38 131,-76 197,-114 -13,-21 -37,-37 -73,-46 -53,8 -139,53 -258,133 -104,63 -162,107 -250,129 -89,21 -177,-1 -190,-62 -10,-58 44,-110 151,-128 107,-18 189,11 260,61 32,-20 63,-39 95,-58 -54,-55 -128,-86 -221,-94 -170,-10 -290,22 -359,95 -81,80 -92,161 -34,242 44,45 91,73 141,82 101,32 249,-25 443,-170z"/>
 </g>
</svg>
