<?xml version="1.0" encoding="UTF-8"?>
<!DOCTYPE svg PUBLIC "-//W3C//DTD SVG 1.1//EN" "http://www.w3.org/Graphics/SVG/1.1/DTD/svg11.dtd">
<!-- Creator: CorelDRAW X7 -->
<svg xmlns="http://www.w3.org/2000/svg" xml:space="preserve" width="99.9999mm" height="19.9648mm" version="1.1" style="shape-rendering:geometricPrecision; text-rendering:geometricPrecision; image-rendering:optimizeQuality; fill-rule:evenodd; clip-rule:evenodd"
viewBox="0 0 968 193"
 xmlns:xlink="http://www.w3.org/1999/xlink">
 <defs>
  <style type="text/css">
   <![CDATA[
    .fil0 {fill:#373435}
   ]]>
  </style>
 </defs>
 <g id="Capa_x0020_1">
  <metadata id="CorelCorpID_0Corel-Layer"/>
  <path class="fil0" d="M863 77l-40 1 9 -25 40 -1 -9 25zm-3 14c4,0 8,-1 12,-3l0 0 0 0 0 0 0 0 0 0 1 0 0 0 0 0 0 0 0 0 0 0c4,-2 6,-6 7,-10l9 -25c1,-3 3,-8 0,-11 -3,-3 -9,-3 -12,-3l-43 1c-4,0 -9,1 -13,3 -3,2 -5,6 -7,10l-9 24c-1,4 -2,9 0,11l1 1 0 0 0 0 0 0 0 0 0 0 0 0 0 0c0,0 1,0 1,0l0 0 0 0 0 0c3,2 8,2 10,2l43 0zm-148 -36c0,0 -1,0 -1,0l-2 6c0,0 0,1 -1,1 -1,1 -3,1 -4,1l-27 0 3 -8 29 -1c0,0 2,0 3,1zm73 -2c1,0 2,0 3,0l0 0 0 0 0 0 0 0 0 0 0 0 0 0 0 1 0 0 0 0 0 0 0 0 0 0c0,0 0,0 0,0l-2 5c0,1 -1,2 -1,2l0 0 0 0 0 0 0 0 0 0 0 0 -1 0 0 0 0 0 0 0 0 0 0 0c-1,1 -2,1 -3,1l-28 0 3 -8 29 -1zm-1 21c3,0 7,0 10,-2l0 0 0 0 0 0 0 0 0 0 1 0 0 0 0 0 0 0 0 0 0 0 0 0c3,-2 6,-5 7,-9l4 -10c1,-4 1,-7 -1,-10 -3,-2 -8,-2 -11,-2l-51 0 -18 51 -20 -17 2 0c4,0 8,0 12,-2 3,-2 5,-5 6,-8l4 -11c1,-4 2,-7 -1,-10l0 0 0 0 0 0 0 0 0 0 -1 0 0 0 0 0 0 0 0 -1 0 0c-3,-1 -7,-1 -9,-1l-51 0 -19 52 18 -1 6 -17 11 0 17 17 26 0 16 -1 7 -17 11 0 16 17 26 -1 -20 -17 2 0zm-155 7l-40 0 9 -25 40 0 -9 25zm26 -35c-2,-3 -9,-3 -12,-3l-42 0c-5,1 -10,1 -14,3 -3,2 -5,6 -7,10l-9 25c-1,3 -2,8 1,11l0 0 0 0 0 0 0 0 0 0 0 0 0 0 0 1 0 0 1 0 0 0c2,2 8,2 11,2l42 -1c4,0 10,0 13,-3 4,-2 6,-6 7,-10l9 -24c2,-4 3,-8 0,-11zm-80 -17c-3,0 -6,0 -9,0 -3,0 -5,0 -8,1l0 0 -1 0 0 0 0 0 0 0 0 0 0 0 0 0 0 0 0 0 -2 0 0 -1 0 0 0 0c0,1 0,1 0,1l0 0 0 0 0 0 0 0 0 0 0 0 0 0 0 0 0 0 0 0 0 0 0 0c-2,1 -3,3 -4,5 -1,2 -2,4 -3,6 -1,2 -1,4 -2,5 5,0 10,-1 15,-2 6,-1 12,-3 18,-7l9 -5 -6 8c-2,3 -4,5 -6,7 -3,3 -6,7 -9,10l0 0 0 0c-5,3 -11,6 -16,8 -5,1 -9,3 -14,4l-3 4c-3,5 -6,10 -9,15 -5,10 -10,22 -13,33l0 0 0 1c-6,10 -10,21 -15,32 -3,9 -7,19 -10,29l-4 10 0 -10c-1,-5 0,-11 2,-15 0,-2 0,-4 1,-6 1,-1 1,-3 2,-5 -2,0 -2,-1 -2,-3 -1,-2 0,-5 1,-8l0 0 0 -2c0,-9 3,-21 6,-30 5,-15 12,-29 18,-43 -1,-1 -3,-2 -4,-3l-2 -2 2 -2c1,-1 4,-2 6,-2 0,1 1,1 2,0 0,0 0,0 1,-1 -1,1 -2,1 -3,1 -1,0 -3,-1 -3,-3l0 -1 0 0c1,-2 1,-3 2,-3 0,-1 1,-1 1,-1l0 0 0 0 0 0 -2 -2 1 -2 0 0 0 0 1 -2 4 4 0 0c1,0 2,0 3,-1 5,-11 10,-21 16,-32 -1,-1 -1,-1 -2,-2l0 -1 0 -2c1,-1 3,-2 4,-2 0,0 1,0 1,0l0 0 0 0 0 0 0 0 0 0 0 0 0 0 0 0 0 0 1 0 0 0 0 0 0 0c0,0 0,0 0,0 -2,-1 -2,-3 -1,-5l0 -1 1 0c3,-1 7,-2 10,-2 4,-1 7,-2 10,-3l1 -1 1 1c4,2 11,2 16,1 2,0 5,0 7,0 2,0 5,-1 7,-1 6,0 14,0 20,4 5,1 9,7 11,11l1 1 -3 5 -1 -1c-4,-2 -8,-4 -12,-3 -4,0 -8,2 -11,4l0 0 0 0c-7,4 -14,6 -21,7l0 0 0 0 0 0 0 0 0 0 0 0 -1 0 0 0 0 0 0 0 0 0 0 0 0 0 0 0zm-140 53l-40 1 9 -25 40 -1 -9 25zm28 -37c-3,-3 -9,-3 -12,-3l-43 0c-4,0 -9,1 -13,3 -4,2 -6,6 -7,10l-9 25c-1,3 -3,8 0,11 3,3 9,3 12,3l43 -1c4,0 9,-1 13,-3 3,-2 5,-6 7,-10l9 -24c1,-4 2,-8 0,-11zm-295 88c0,-1 0,-1 0,-1 2,-3 4,-6 6,-9 1,-2 2,-5 4,-7 0,-1 0,-1 1,-2l-1 0c1,-1 1,-2 2,-3 3,-7 5,-14 8,-21 6,-16 15,-31 21,-47 0,-1 1,-2 1,-3 1,-2 1,-4 2,-5l0 0c0,0 0,0 0,0 0,0 0,0 -1,0 1,-2 1,-4 2,-6 2,-5 3,-10 5,-15l0 0 0 0c0,-1 0,-2 1,-2 0,-1 0,-2 0,-3 0,-2 0,-5 0,-7 0,0 -1,0 -1,0l0 0 0 0 0 0 0 0 0 0 0 0 0 0 0 0 0 0 0 0 0 0 0 0 0 0 -1 0 0 0 0 0c-1,2 -3,4 -5,5l0 0c0,0 0,0 0,0 0,1 -1,1 -2,2 0,0 0,1 -1,1 -3,3 -6,5 -10,6 -9,6 -21,12 -32,13 -5,1 -10,1 -16,1 -4,0 -15,1 -20,-3 0,-1 -1,-1 -2,-2 0,0 -1,0 -1,0l0 0 0 0 0 0 0 0 0 0 0 0 0 0 0 0 0 0 0 0 0 0 0 0c-1,0 -1,0 -1,-1l0 0c0,0 0,0 0,0l0 0 0 0 0 0 0 0 0 0 0 0c-1,-1 -1,-2 0,-3 0,-1 1,-2 1,-2 1,-1 2,-2 2,-2 2,-3 6,-4 10,-4 4,-1 9,-1 13,-2 2,0 3,-1 5,-1l0 -2 -2 0c-3,1 -7,0 -10,-1 -3,-1 -6,-2 -10,-2l0 0 0 0 0 0 0 0 0 0 0 0 0 0 0 0 0 0 0 0 0 0 0 0 0 0 0 0 0 0 0 0 0 0 0 0 0 0 0 0 0 0 0 0 0 0 0 0 0 0 0 0 0 0 0 0 0 0 0 0 0 0 0 0 0 0 0 0 0 0 0 0 0 0 -1 0 0 0 0 0 0 0 0 0 0 0 0 0 0 0 0 0 0 0 0 0 0 0 0 0 0 0 0 0 0 0 0 0 0 0 0 0 0 0 0 0 0 0 0 0 0 0 0 0 0 0 0 0 0 0 0 0 0 0 0 0 0 0 0 0 0 0 0 0 0 0 0 0 0 0 -1 0 0 0 0 0 0 0 0 0 0 0 0 0 0 0 0 0 0 0 0 0 0 0 0 0 0 0 0 0 0 0 0 0 0 0 0 0 0 0 0 0 0 0 -1 0c-9,3 -17,10 -23,19l0 0 0 1c0,0 0,1 0,2 1,3 4,6 6,9 2,1 4,2 5,2l0 0c4,1 7,3 10,4l0 0 0 0c9,1 18,1 27,1 13,0 26,-2 38,-5 0,0 0,0 0,1 -1,1 -2,3 -3,5l0 0 0 0 0 0 0 0 0 0 0 0 0 0 0 0 0 0 0 0 0 0 0 0 0 0 0 0 0 0 0 0 0 0 0 0 0 0 0 0 0 0 0 0 0 0 0 0 0 0 0 0 0 0 0 0 0 0 0 0 0 0 0 0 0 0c0,0 0,0 0,0l0 0 0 0 0 0 0 0 0 0 0 0 0 0 0 0c0,0 -1,0 -1,0l0 0 0 0 0 0 0 0 0 0 0 0 0 0c1,0 1,1 1,1 -2,2 -2,5 -3,7l0 0c0,0 0,0 0,0 0,1 0,2 0,2 -1,1 -1,2 -2,3l0 0c0,1 0,2 -1,2 0,2 0,3 -1,4 -1,2 -2,4 -3,6 -1,2 -2,5 -2,7 -1,1 -2,3 -2,4 -2,4 -3,7 -5,11 -1,3 -2,7 -3,10 -2,2 -2,3 -3,5 0,0 0,1 0,1 -3,-1 -5,-2 -8,-3 -4,-3 -8,-5 -13,-6 -7,-4 -15,-7 -21,-11l0 0c-1,0 -2,-1 -2,-1 -2,0 -3,-1 -4,-1 -5,-2 -10,-3 -16,-5 -7,-2 -15,-4 -23,-4l-1 0 0 1 0 -1 0 0 0 0 -1 0 0 0 0 0 0 0 0 0 0 0 0 0 0 0c-2,0 -4,0 -6,0 -2,0 -4,0 -6,1l0 0 -1 0 0 0 0 0 0 0 0 0 0 0 0 0 0 0 0 0 0 0 0 0 -1 0 0 0 0 0 0 0 0 0 0 0 0 0 0 0 0 0 0 0 0 0c-2,0 -4,0 -5,0 -1,0 -3,0 -4,0l0 0 0 0 0 0 0 0 0 0 0 0 0 0 -1 -1 0 0c-6,0 -13,2 -19,4 -2,0 -3,0 -4,1l0 0c-5,1 -10,3 -15,4 -1,1 -1,1 -2,2 -1,0 -2,0 -3,0 -4,4 -9,9 -12,14l0 0 0 0 0 0 0 0 0 0 0 0 0 0 0 0 0 0 0 0 0 0 0 0 0 0 0 0 0 0 0 0 0 0 0 0 0 0 0 0 0 0 0 0 0 0 0 0 0 0 0 0 0 1 0 0 0 0 0 0 0 0 0 0 0 0 0 0 0 0 0 0 0 0 0 0 0 0 0 0 0 0 0 0 0 0 0 0 0 0 0 0 0 0 0 0 0 0 0 0 0 0 0 0 0 0 0 0 0 0 0 0 0 0 0 0 0 0 0 0 0 0 0 0 0 0 0 0 0 0 0 0 0 0 0 0 0 0 0 0 0 0 0 0 0 0 0 0 0 0 0 0 0 0 0 0 0 0 0 0 0 0 0 0 0 0 0 0 0 0 0 0 0 0 0 0 0 0 0 0 0 0 0 0 0 0 0 0 0 0 0 0 0 0 0 0 0 0c0,1 0,2 0,3l0 0 0 0 0 0 0 0 0 0 0 0 0 0 0 0 0 0 0 0 0 0 0 0 0 0 0 0 0 0 0 0 0 0 0 0 0 0 0 0 0 0 0 0 0 0 0 0 0 0 0 0 0 0 0 0 0 0 0 0 0 0 0 0 0 0 0 0 0 0 0 0 0 0 0 0 0 0 0 0 0 0 0 0 0 0 0 0 0 0 0 1 0 0 0 0 0 0 0 0 0 0 0 0 0 0 0 0 0 0 0 0c0,0 1,1 1,2 0,0 1,1 1,1 1,1 1,1 1,2 1,1 3,3 4,4 1,1 1,1 2,2l0 0 0 0 0 0 0 0 0 0c0,0 1,0 1,0 0,0 1,1 1,1 4,2 7,4 11,5l0 0 0 0 0 0 0 0 0 0 0 0 0 0 0 0 0 0 0 0c2,0 3,0 4,0 5,0 10,-1 14,-3l5 -2 -3 -2c-2,0 -4,0 -6,0 -2,0 -4,0 -6,-1l0 0 0 0 0 0 0 0 -1 0 0 0 0 0c0,0 0,0 0,0 -1,0 -1,-1 -1,-1l0 0 0 0 0 0 0 0 0 0 0 0 0 0 0 0 0 0 0 0c-1,0 -1,0 -1,0 -1,0 -1,0 -1,0l0 0 0 0 0 0 0 0 0 0 0 0 0 0 0 0 0 0 0 0 0 0 0 0 0 0 0 0 0 0 0 0 0 0 0 0 0 0 0 0 -1 0 0 0 0 0 0 0 0 0 0 0 0 0 0 0 0 0 0 0 0 0c0,0 0,-1 0,-1l0 0c-1,0 -2,0 -3,-1 -1,0 -1,-1 -2,-1 -1,-1 -3,-2 -3,-3 0,0 0,0 0,-1 0,0 0,0 0,0 0,-2 0,-3 2,-5 3,-2 6,-2 9,-3 4,-2 7,-3 11,-3 1,-1 2,-1 3,-2 4,-1 8,-1 12,-1 7,0 13,1 19,2 2,0 3,0 5,0 12,1 22,4 32,8 14,3 27,9 35,19 2,2 4,4 6,6 0,1 0,1 1,2 0,0 1,1 2,1 0,0 -1,0 -1,1 4,3 4,11 2,18 0,0 1,0 1,0l0 0 0 0 0 0 0 0 0 0 0 0 0 0 0 0 0 0 0 0 1 0 0 0 0 0 0 0 0 0c2,-3 4,-6 6,-9 2,-3 3,-6 5,-8zm181 -36l18 -52 18 0 -18 51 -18 1zm-49 -13l43 0 -5 13 -61 1 19 -51 18 -1 -14 38zm-33 12c-4,2 -9,2 -12,2l-37 1c-3,0 -7,0 -10,-2l0 0 -1 0 0 0 0 0 0 0 0 0 0 0 0 0 0 0 0 -1 0 0 0 0 0 0 0 0 -1 0 0 0c-1,-2 -2,-4 -1,-6 0,-2 0,-4 1,-5l14 -37 17 -1 -13 38 34 0 13 -38 18 0 -14 38c-1,4 -4,8 -7,10l0 0 0 1 -1 0 0 0 0 0 0 0 0 0 0 0 0 0 0 0 0 0zm636 -26c-1,0 -3,-1 -3,-2 -3,-3 -2,-8 -1,-11l2 -5c2,-4 4,-8 7,-10 4,-2 9,-3 13,-3l33 0c4,-1 9,0 12,2 3,3 2,7 1,11l-1 2 -16 0 1 -3 -34 1 -2 5 33 0c3,0 8,-1 11,2l0 0 0 0 0 0 1 0 0 0 0 0 0 0 0 0c3,3 2,8 1,12l-3 6c-1,4 -3,8 -7,10 -3,2 -9,3 -13,3l-36 0c-3,0 -9,0 -12,-3 -3,-3 -1,-7 0,-11l1 -2 1 0 0 0 15 -1 -1 4 36 -1 2 -6 -32 1c-3,0 -5,0 -9,-1l0 0zm0 0l0 0 0 0zm-272 70l9 -25 47 -1 -2 4 -36 1 -2 5 21 0 -1 4 -22 1 -2 6 37 -1 -2 5 -47 1zm124 -2l9 -25 46 0 -1 4 -36 0 -2 6 21 -1 -2 5 -21 0 -2 6 36 0 -1 4 -47 1zm60 -1l9 -25 10 0 -9 25 -10 0zm137 -33l-3 8 -2 0 -8 24 -28 0 2 -4 18 0 7 -19 -3 0 -4 1 -4 2 -2 2 -4 1 -3 2 -5 3 -4 4 -4 3 -4 5 -3 5 -3 4 -2 4 -4 12 -1 7 0 -1 0 -10 1 -8 2 -5 4 -8 3 -4 3 -5 4 -3 4 -4 3 -2 5 -4 6 -3 5 -2 4 -2 6 -1 6 -2 4 0 4 0zm-342 15c2,0 3,1 4,1l0 0 0 0 0 0 0 0 0 0 0 0 0 0 0 0 0 0 0 0 0 0 0 0c1,0 1,1 0,1l-1 3c0,1 0,1 -1,2l0 0 0 0 0 0 0 0 0 0 0 0 0 0 0 0 0 0 0 0 0 0 0 0c-1,0 -2,0 -4,0l-24 0 2 -6 24 -1zm2 9c3,0 5,0 7,-1l0 0 0 0 0 0 0 0 0 0 0 0 0 0 0 0 0 0 1 0 0 0 0 0 0 0c2,-1 3,-2 4,-4l2 -5c0,-2 0,-3 -2,-4 -1,-1 -3,-1 -7,-1l-39 0 -9 25 11 0 3 -10 29 0zm120 -10c1,0 2,0 3,0l0 0 0 0 0 0 0 0 0 0 0 0 0 0 0 0 0 0 0 0 0 0c1,0 1,1 1,2l-1 3c-1,0 -1,1 -2,1l0 0 0 0 0 0 0 0 0 0 0 0 0 0 0 0 0 0 0 0 0 0 0 0c-1,1 -2,1 -4,1l-24 0 3 -7 24 0zm1 9c3,0 5,-1 7,-1l0 0 0 0 0 0 1 0 0 0 0 0 0 0 0 0 0 0 0 0 0 -1c2,0 3,-2 4,-3l2 -6c0,-2 0,-3 -1,-4 -2,0 -4,-1 -8,-1l-39 1 -9 25 11 -1 3 -9 10 0 15 9 15 0 -17 -9 6 0zm143 -11c2,0 3,0 4,0l0 0 0 0 0 0 0 0 0 0 0 0 0 0 0 0 0 0 0 0 0 0 0 0 0 0 0 0c0,1 1,1 0,2l-1 3c0,1 -1,1 -1,1 -1,1 -2,1 -4,1l-24 0 2 -7 24 0zm14 -6c-1,0 -4,-1 -7,-1l-39 1 -9 25 10 0 4 -10 10 0 15 9 15 0 -18 -9 6 0c4,0 7,-1 9,-1 1,-1 3,-2 3,-4l2 -6c1,-2 1,-3 -1,-4z"/>
 </g>
</svg>
