<svg xmlns="http://www.w3.org/2000/svg"  >
    <symbol id="isotipo" viewBox="0 0 2378.58 1906.13" >
        <title>isotipo </title>
        <path class="isotipo" d="M1102.38 1901.85c-594.33,31.14 -1087.85,-111.22 -1102.07,-317.91 -5.9,-85.66 71.51,-168.93 206.41,-239.31 -55.35,52.09 -84.3,108.02 -80.38,165.05 15.08,219.22 509.3,371.75 1103.63,340.61 283.65,-14.86 538.88,-68.89 726.61,-145.13 -189.84,102.13 -500.01,178.14 -854.21,196.69zm-73.42 -1900.32c487.43,-16.81 888.95,107.03 896.63,276.54 3.18,70.24 -61.82,137.32 -173.68,193 46.34,-41.86 71.13,-87.24 69.01,-134.01 -8.14,-179.79 -410.04,-311.96 -897.47,-295.15 -232.63,8.02 -442.73,48.54 -597.98,108.25 157.47,-80.89 413,-138.6 703.49,-148.62zm442.13 494.43c27.25,0.79 40.5,12.98 39.73,36.54 8.23,14.76 20.4,21.07 36.53,18.91 16.41,-6.94 18.59,-23.78 6.54,-50.56 -13.05,-27.05 -40.66,-28.68 -82.8,-4.9zm-1228.48 433.36c71.99,-272.53 231.98,-501.21 479.92,-686.03 -252.14,74.3 -484.94,255.02 -698.39,542.16 29.4,26.02 55.31,28.52 77.71,7.49 48.35,-30.53 85.24,-28.76 110.67,5.27 -6.81,75.45 3.21,119.16 30.09,131.11zm-104.43 -338.9c101.77,-124.7 234.65,-236.31 398.63,-334.81 -151.15,34.92 -300.8,86.68 -448.92,155.24 -3.04,32.02 13.99,51.47 51.09,58.33 -28.26,67.68 -28.53,108.1 -0.79,121.24zm1109.59 852.24c103.08,139.1 231.23,226.25 384.44,261.46 125.47,21.5 228.8,-13.97 310.02,-106.44 81.75,-106.51 113.67,-214.66 95.72,-324.45 -12.83,-70.02 -36.4,-136.53 -70.71,-199.53 177.56,-21.79 285.78,25.76 324.67,142.61 30.72,108.52 9.83,172.76 -62.7,192.71 -57.78,13.6 -91.6,-1.14 -101.45,-44.25 0.53,-14.04 7.81,-27.04 21.82,-38.99 14.01,-19.22 9.14,-37.11 -14.6,-53.65 8.62,19.8 0.3,30.29 -24.92,31.43 -32.93,36.28 -31.49,78.9 4.32,127.83 61.84,60.11 137.76,48.83 227.76,-33.86 44.67,-61.39 48.27,-138.56 10.78,-231.49 -101.08,-183.31 -254.18,-242.98 -459.27,-179.02 -95.98,-102.13 -252.01,-149.66 -468.09,-142.58 -219.39,12.16 -345.05,-27.31 -376.94,-118.42 -41.13,-138.72 54.47,-207.21 286.8,-205.5 26.31,70.96 95.42,113.36 207.34,127.17 29.24,28.28 62.43,46.4 99.53,54.38 -1.79,22.47 3.15,44.87 14.82,67.18 51.65,-11.77 82.21,-32.04 91.67,-60.8 5.32,-16.14 3.99,-34.96 -3.97,-56.44 -33.52,-51.81 -79.06,-93.36 -136.61,-124.66 8.08,-66.34 -33.5,-116.35 -124.74,-150.06 -85.63,-10.77 -165.11,-78.85 -238.42,-204.27 -23.26,-36.27 -49.09,-60.03 -77.48,-71.27 -9.08,34.69 3.44,73.76 37.55,117.21 25.29,36.74 50.57,73.49 75.85,110.23 -210.44,-34.54 -365.87,44.79 -466.27,237.96 -47.36,-21.89 -62.64,-68.86 -45.86,-140.9 18.91,-61.42 71.59,-113.12 158.03,-155.13 57.36,12.22 83.51,1.25 78.45,-32.92 -9.92,-49.29 -43.75,-64.6 -101.47,-45.94 -218.33,117.67 -379.8,264.99 -484.42,441.93 -94.8,147.07 -142.34,307.06 -142.62,479.94 67.06,-228.13 227.99,-361.97 482.8,-401.5 12.45,99.2 74.56,180.97 186.3,245.3 94.99,69.58 259.58,97.93 493.78,85.02 218.12,-5.42 342.87,78.96 374.26,253.16 11.65,86.3 -8.47,156.69 -111.24,186.56 -102.77,29.86 -218.47,-28.82 -302.51,-149.61 102.23,-58.99 204.45,-117.98 306.68,-176.97 -19.52,-33.7 -57.11,-57.65 -112.76,-71.85 -82.96,13.05 -217.19,82.25 -402.64,207.58 -161.73,98.43 -251.9,166.99 -389.65,199.95 -137.74,32.95 -274.76,-1.2 -295.91,-95.8 -15.74,-91.31 69.67,-171.37 236.37,-199.85 166.69,-28.48 293.76,16.7 404.98,94.5 49.08,-29.74 98.18,-59.48 147.27,-89.21 -84.4,-85.56 -198.92,-134.74 -343.59,-147.56 -265.47,-14.78 -452.16,34.6 -560.11,148.15 -125.33,124.98 -142.91,250.93 -52.75,377.83 68.04,70.47 141.2,112.81 219.46,127.03 157.4,49.76 387.48,-38.32 690.25,-264.22z"/>
    </symbol>
    <symbol id="logotipo" viewBox="0 0 7464.79 1490.33">
        <title>logotipo </title>
        <path class="logotipo" d="M6653.49 595.94l-307.77 4.44 70.08 -192.14 307.77 -4.44 -70.07 192.14zm-20.92 102.62c28.06,0 64.52,-2.87 92.12,-16.06l0 0 1.44 -0.7 0 -0.02 1.43 -0.71 0 0 1.43 -0.74 1.38 -0.78 0 0 1.37 -0.76 1.37 -0.82 1.31 -0.83c26.37,-16.12 43.2,-45.86 54.35,-76.46l68.98 -189.08c9.52,-26.45 18.76,-63.44 -1.91,-86.23 -19.82,-21.41 -66.27,-22.25 -92.35,-21.71l-328.14 4.73c-31.79,0.58 -73.62,4.16 -102.13,21.7 -26.07,16.67 -43.18,45.86 -54.05,76.45l-69.28 189.4c-9.5,25.9 -19,63.68 2.16,86.21l0.97 0.97 0.96 0.96 1.05 0.9 1.05 0.88 0 0 1.09 0.88 0 0 1.13 0.81c0.77,0.55 1.55,1.09 2.35,1.59l0 0 1.23 0.75 0 0c22.69,13.55 60.07,13.88 82.27,13.65l328.41 -4.99zm-1145.26 -276.98c0,0 -0.8,1.66 -0.8,1.66l-15.48 43.4c-2.16,5.52 -4.87,10.25 -10.04,13.03 -8.16,4.23 -23.92,5.02 -32.62,5.02l-209.42 3.07 23.36 -64.23 222.75 -3.35c4.05,0 15.74,0 22.25,1.4zm569.11 -9.99c3.58,0 13.17,-0.24 19.7,0.8l0 0.02 0.33 0.05 0 0 0.35 0.04 0 0.02 0.34 0.05 0 0 0.34 0.07 0.3 0.07 0.33 0.06 0.31 0.08 0.28 0.07 0 0.03c-0.28,0.57 -0.54,1.11 -0.54,1.66l-15.74 43.12c-2.2,5.54 -5.17,10.24 -10.07,13.04l-0.38 0.22 -0.37 0.19 -0.4 0.2 -0.43 0.19 0 0 -0.4 0.16 -0.45 0.19 0 0 -0.43 0.16 0 0 -0.44 0.18 0 0c-8.47,3.08 -21.7,3.56 -29.29,3.78l-209.45 3.09 23.36 -64.54 222.76 -3.04zm-13.04 160.71c26.36,0 55.98,-3.31 81.13,-15.03l0 0 1.31 -0.63 0 0 1.31 -0.62 0 -0.02 1.3 -0.66 0 0 1.3 -0.67 1.3 -0.68 1.27 -0.71 0 -0.01 1.25 -0.69c24.19,-13.61 40.77,-35.33 50.81,-63.14l30.69 -83.98c9.24,-25.29 11.97,-54.52 -9.24,-73.14 -19.82,-18.05 -56.22,-19.76 -80.96,-19.18l-391.96 5.84 -142.32 389.91 -150.5 -127.67 11.94 0c29.62,-0.54 63.29,-4.46 90.18,-19.75 24.19,-13.91 40.76,-35.58 51.07,-63.38l30.43 -83.73c9.23,-25.56 11.94,-54.76 -9.24,-73.42l-0.93 -0.84 -0.96 -0.79 -0.96 -0.77 0 -0.03 -1.01 -0.75 -1.02 -0.75 -1.07 -0.72 -1.05 -0.67 0 -0.02 -1.1 -0.66 0 -0.01c-20.45,-12.38 -51.2,-13.38 -72.57,-13.15l-392.25 5.84 -144.26 395.48 136.65 -2.25 49.44 -135.72 81.49 -1.09 130.11 132.96 201.56 -2.8 128.74 -2.23 49.44 -135.99 83.7 1.65 127.92 130.72 201.54 -3.09 -156.18 -132.61 11.69 -0.3zm-1193.61 50.33l-307.77 4.49 70.09 -192.2 307.77 -4.44 -70.09 192.15zm202.39 -270.58c-19.56,-21.4 -66.29,-22.25 -92.36,-21.69l-328.14 4.73c-31.77,0.59 -73.62,4.18 -102.15,21.69 -26.34,16.7 -43.17,45.89 -54.31,76.48l-69 189.37c-9.51,26.16 -19.02,63.7 1.9,85.95l0.94 0.99 0.99 0.99 1.03 0.92 1.07 0.92 0 0 1.1 0.87 0 0.03 1.1 0.84 0 0 1.18 0.81 0 0c22.42,15.39 61.94,15.54 84.93,15.3l328.41 -4.71c31.52,-0.55 73.63,-3.9 101.86,-21.69 26.37,-16.13 43.2,-45.89 54.06,-76.48l69.27 -189.09c9.52,-26.42 18.76,-63.43 -1.89,-86.23zm-618.75 -128.19c-22.2,1.52 -44.95,1.93 -67.15,1.93 -21.14,0.26 -43.34,0.7 -64.56,3.04l0 0 -2.3 0.26 0 0 -1.13 0.15 -1.13 0.11 0 0.03 -1.13 0.14 -1.1 0.12 -1.13 0.17 -1.13 0.15 -10.86 1.42 -1.88 -3.9 -0.03 0 -0.02 0c-0.48,0.16 -1.03,0.22 -1.65,0.31l-0.1 0 0 0 -0.1 0.02 -0.04 0 -0.05 0.02 -0.83 0.14 -0.06 0 -0.03 0 -0.02 0.03 -0.05 0 0 0 -0.02 0c-10.06,13.39 -19.01,28.37 -27.17,43.41 -7.61,14.74 -14.66,30.31 -21.73,45.31 -6.24,13.37 -12.49,27 -19.28,40.05 38.56,-5.82 76.87,-11.94 115.17,-18.62 49.99,-8.35 98.61,-25.31 143.15,-52.57l67.91 -41.97 -47.81 68.12c-12.5,17.8 -27.72,35.03 -41.83,50.61 -23.63,26.17 -48.07,51.74 -72.51,76.48l-1.37 1.39 -1.62 1.13c-38.3,23.92 -79.06,42.53 -120.88,57.54 -34.79,11.7 -69.54,23.36 -104.59,35.32l-28.52 31.71c-22.27,36.98 -43.74,74.52 -63.84,112.89 -40.74,77.61 -83.38,167.7 -104.86,254.74l-0.54 2.23 -1.08 1.66c-40.46,80.37 -76.61,162.96 -109.46,246.95 -29.05,76.2 -56.23,153.23 -83.4,229.99l-27.15 75.95 -3.53 -81.5c-1.63,-36.7 6.51,-78.99 14.93,-114.58 3.27,-13.62 7.34,-27.53 11.16,-41.16 4.05,-14.16 8.13,-28.08 12.2,-42.27 -8.41,-1.63 -14.4,-9.46 -15.2,-19.47 -0.82,-15.56 4.6,-38.65 11.67,-61.74l-2.16 0.04 -0.27 -16.17c-1.37,-73.66 25.24,-164.07 48.62,-232.49 38.56,-114.55 88.8,-227.76 140.15,-336.51 -11.95,-5.52 -23.89,-13.34 -33.67,-20.84l-17.94 -13.35 16.86 -15.03c13.03,-11.94 28.8,-16.97 45.09,-13.35 6.24,1.4 11.94,1.12 17.39,-1.96 1.9,-2.48 3.53,-5.28 5.16,-8.05 -5.99,2.78 -12.48,5.28 -17.64,5.84 -13.32,1.13 -23.36,-8.61 -25.55,-23.09l-0.8 -5.82 2.16 -4.99c4.07,-8.93 9.5,-16.43 16.03,-22.83 1.61,-1.69 3.78,-3.61 5.7,-5.57l0 0 0 0.01 0 -0.01 -16.56 -12.79 8.42 -13.37 -1.63 -3.86 3.53 1.37 8.41 -13.34 31.79 25.33 -1.37 2.22c7.63,0.83 14.69,-1.43 21.74,-6.97 39.12,-82.32 79.57,-164.39 119.79,-246.12 -3.26,-6.13 -6.52,-12.24 -9.24,-18.37l-4.88 -10 6.25 -9.15c6.79,-9.46 15.75,-19.23 27.17,-20.33 3.56,-0.22 7.11,0.37 10.49,1.66l0 0 0.19 0.04 0 0.04 0.19 0.04 0 0 0.19 0.07 0 0.03 0.16 0.04 0.18 0.07 0.2 0.07 0 0.04 0.16 0.06 0.2 0.07c0,-0.28 0.25,-0.55 0.25,-0.55 -9.5,-7.51 -11.94,-20.88 -7.34,-34.48l2.72 -8.08 7.32 -2.52c23.1,-8.59 54.07,-13.06 78.25,-16.97 26.35,-4.7 52.44,-12.51 76.34,-25.86l7.08 -3.86 7.32 4.14c32.88,18.95 87.45,17.52 123.59,14.2 17.93,-1.66 36.13,-3.37 54.06,-5.02 17.95,-1.66 35.58,-3.33 53.5,-4.73 46.74,-4.44 112.46,-4.73 151.86,29.22 39.38,6.66 69.53,51.71 88.28,86.75l4.88 8.95 -17.39 32.81 -13.03 -6.7c-27.43,-14.45 -60.29,-26.97 -91,-24.21 -30.43,2.81 -58.66,17.25 -83.95,36.17l-0.8 0.27 -0.83 0.58c-49.42,28.93 -102.68,45.3 -158.08,50.59l-1.21 0.09 -1.16 0.1 -1.21 0.1 0 0.02 -1.21 0.07 0 0.02 -1.22 0.07 0 0 -1.2 0.1 0 0 -1.19 0.1 0 0 -2.4 0.17 0 0zm-1078.72 409.92l-307.5 4.73 70.07 -192.18 307.5 -4.7 -70.07 192.16zm213.53 -289.8c-19.85,-21.72 -66.56,-22.27 -92.65,-21.72l-328.12 4.76c-31.79,0.54 -73.63,3.87 -101.89,21.67 -26.32,16.71 -43.17,45.89 -54.31,76.46l-69.01 189.14c-9.5,26.12 -18.99,63.94 1.9,86.46 19.83,21.17 66.29,21.71 92.08,21.14l328.44 -4.71c31.77,-0.54 73.6,-3.9 101.86,-21.44 26.35,-16.39 43.2,-46.15 54.32,-76.46l69 -189.4c9.5,-26.12 18.73,-63.11 -1.61,-85.9zm-2275.28 678.33c1.1,-0.87 1.88,-1.72 2.97,-2.55 16.03,-22.24 30.17,-45.89 44.83,-68.97 8.15,-19.74 18.19,-38.95 30.43,-56.46 1.9,-4.7 3.81,-9.72 5.97,-14.45l-1.08 -1.96c2.97,-6.09 6.26,-12.53 9.5,-18.63 22.56,-54.47 43.46,-109.29 63.31,-165.46 43.46,-124.31 115.44,-239.45 164.61,-361.82 1.63,-9.73 4.05,-18.62 7.88,-27.27 4.08,-12.49 8.7,-24.72 13.83,-36.4l0.15 -0.28c0.07,-0.07 0.14,-0.14 0.14,-0.29 -2.18,1.66 -4.08,3.07 -6,5 4.37,-15.56 8.7,-30.86 13.06,-46.15 12.77,-38.38 25.52,-76.76 37.76,-115.44l0.8 -2.46 0.28 -1.98c0.81,-5.52 3,-12.51 4.37,-17.8 1.34,-5.82 3.25,-11.38 4.62,-17.23 -0.29,-19.47 -0.29,-38.65 1.06,-58.13 -4.2,-0.21 -8.39,-0.06 -12.59,0.34l0 0 -0.24 0.04 0 0 -0.23 0.01 0 0 -0.24 0 0 0.02 -0.2 0 0 0.03 -0.25 0 0 0.02 -0.24 0 0 0.02 -0.21 0.03 -0.24 0.02 -0.22 0.02c-10.87,15.58 -24.44,28.37 -39.93,38.65l-0.14 0.3c-0.07,0.06 -0.13,0.14 -0.13,0.26 -5.44,5.04 -11.13,9.46 -17.39,13.07 0,5.02 -1.9,10.01 -6.53,13.64 -23.63,18.09 -50.52,32.52 -79.32,39.47 -71.18,50.35 -158.34,98.45 -243.12,104.57 -39.65,5.84 -80.68,7.24 -123.04,6.39 -35.85,-0.55 -120.06,6.69 -153.75,-25.31 -6.5,-2.49 -11.94,-6.11 -16.03,-10.84 -3.56,-0.26 -6.93,-0.7 -10.44,-1.18l0 0 -0.19 -0.02 0 0 -0.16 -0.03 0 0 -0.22 -0.02 -0.19 -0.02 0 -0.02 -0.19 -0.03 -0.19 -0.02 -0.18 -0.01 -0.19 -0.02c-5.17,-1.12 -8.15,-3.34 -9.78,-6.67l0.01 0c0.4,-0.15 0.73,-0.34 1.06,-0.57l0 -0.01 0.07 -0.03 0.01 -0.02 0.05 0 0.94 -0.51 0 0c-6.49,-6.63 -7.59,-17.78 0.29,-24.17 1.34,-6.13 5.7,-11.7 11.94,-16.41 3.25,-6.95 8.96,-12.24 16.3,-15.3 15.21,-21.69 44.81,-28.93 76.32,-31.44 30.97,-9.14 63.58,-3.06 97.24,-11.11 13.59,-3.05 26.91,-6.96 39.94,-11.43l-1.63 -11.63 -14.66 1.09c-24.46,1.93 -50.81,-4.18 -73.91,-11.97 -23.89,-8.05 -52.69,-16.14 -77.67,-15.58l-0.33 0 -0.33 0 -0.33 0 0 0.02 -0.34 0 -0.33 0 0 0 -0.33 0 -0.33 0 -0.33 0 0 0.01 -0.36 0 0 0 -0.32 0 0 0 -0.34 0 0 0.02 -0.33 0 0 0 -0.32 0 0 0 -0.33 0.03 0 0 -0.34 0 0 0 -0.31 0.02 0 0 -0.34 0 0 0 -0.33 0 0 0.02 -0.33 0 0 0.03 -0.34 0 0 0 -0.34 0 0 0.02 -0.31 0 0 0.02 -0.34 0 0 0 -0.32 0 0 0.03 -0.34 0 0 0.02 -0.33 0 0 0 -0.31 0.02 0 0 -0.33 0.03 0 0 -0.36 0 0 0.02 -0.31 0 0 0.02 -0.33 0 0 0.03 -0.33 0 -0.34 0.01 -0.33 0.03 -0.33 0.04 -0.33 0.01 0 0.02 -0.33 0 0 0.02 -0.32 0 -0.32 0.04 0 0 -0.33 0 0 0.03 -0.33 0.03 -0.34 0.02 -0.3 0.02 0 0 -0.36 0.01 -0.31 0.06 -0.34 0.01 -0.32 0.04 -0.32 0.04 -0.32 0.02 -0.33 0.03 -0.33 0.04 -0.31 0.02 -0.33 0.03 -0.34 0.05 -0.32 0.02 0 0.01 -0.31 0.02 -0.33 0.03 -0.3 0.05 -0.34 0.01 -0.33 0.05 -0.31 0.03 -0.34 0.04 -0.3 0.05 -0.33 0.02 -1.35 0.28 -1.36 0.28c-74.43,25.31 -134.46,73.15 -176.57,146l-1.36 1.95 -0.55 2.22c-1.62,5.58 -3.25,11.97 -4.08,18.36 12.79,25.04 33.96,47.56 52.16,68.15 11.69,9.18 24.75,16.12 38.32,20.86l0.27 0c24.16,7.76 48.07,15.83 72.24,23.36l1.64 0.55 1.36 0c68.72,7.24 137.98,11.39 207.25,10.28 98.09,-1.37 196.41,-13.06 292.02,-39.76 -1.07,2.8 -1.9,5 -2.71,6.4 -4.62,10 -12.76,26.15 -17.1,39.2l-0.05 0.02 0 0 -0.02 0 -0.02 0 -0.02 0 -0.03 0 0 0.03 -0.05 0 0 0 -0.04 0 -0.02 0.02 -0.03 0 -0.04 0 -0.03 0 -0.04 0 -0.07 0.03 -0.07 0.01 -0.07 0 -0.07 0 0 0.03 -0.05 0 -0.02 0 -0.04 0.02 -0.05 0 -0.05 0 -0.02 0 -0.05 0.01 -0.04 0 -0.03 0 -0.15 0.04 -0.01 0.01 -0.04 0 -0.04 0c-1.05,0.17 -2.15,0.35 -2.91,0.56l0 0.02 -0.04 0 0 0 -0.02 0 -0.02 0 -0.02 0.03 -0.05 0 0 0c-1.5,0.26 -2.99,0.96 -4.47,1.52l-0.03 0 -0.07 0.02 0 0 -0.07 0.05 -0.09 0.02 -0.07 0.02 -0.07 0.03c4.08,1.4 7.35,5.84 4.08,11.12 -9.23,15.59 -14.13,33.08 -19.56,50.07l1.37 3.62c0,0 -0.29,0.55 -0.29,0.55 -1.36,3.91 -2.99,8.89 -4.61,12.79 -3.53,6.95 -7.61,13.89 -13.29,18.89l-1.66 1.69c0,7.24 -0.82,13.9 -4.33,20.59 -0.83,8.08 -4.9,18.89 -7.36,24.73 -7.87,16.98 -16.02,33.94 -23.9,50.9 -7.06,14.77 -15.74,34.2 -18.73,51.44 -4.9,10.04 -10.06,20.32 -14.93,30.6 -13.07,27.84 -24.19,57.28 -34.23,86.49 -9.23,25.57 -18.48,53.66 -28.81,78.98 -8.69,9.48 -14.13,21.97 -17.65,34.76 -1.07,3.89 -2.72,8.62 -4.61,12.52 -18.77,-10.85 -38.05,-20.86 -57.61,-30.03 -33.42,-16.41 -67.35,-31.7 -101.05,-46.73 -55.16,-24.47 -114.09,-50.6 -166.26,-81.75l-0.53 0c-3.25,-2.22 -9.51,-3.61 -13.32,-5.02 -10.04,-3.06 -20.36,-6.4 -30.4,-9.73 -39.95,-12.79 -79.61,-25.58 -119.53,-38.38 -57.31,-18.89 -118.17,-32.26 -178.47,-32.26l-6.51 0 -4.9 5.02 -0.74 -0.14 -0.72 -0.17 0 0 -0.75 -0.15 -0.73 -0.13 0 0 -0.77 -0.14 -0.72 -0.13 0 -0.02 -0.75 -0.13 0 0c-14.18,-2.52 -28.9,-3.4 -43.18,-3.15 -17.82,0 -35.42,2.11 -52.84,5.61l0 0.03 -0.94 0.17 0 0.01 -0.94 0.17 0 0 -0.92 0.19 -0.95 0.22 -0.92 0.19 -0.92 0.2 -0.93 0.22 -0.96 0.19 -0.58 -0.04 -0.63 -0.05 -0.63 -0.04 -0.66 -0.03 -0.66 -0.02 0 -0.02 -0.72 -0.03 0 0 -0.67 -0.02 0 0 -0.74 -0.02 0 0c-13.5,-0.44 -33.7,0.92 -40.59,1.13 -5.67,0 -20.47,0 -27.25,-2.49l0 0 -0.34 -0.1 -0.33 -0.15 -0.31 -0.14 -0.29 -0.15 -0.28 -0.15 -0.28 -0.14 -3.8 -2.78 -4.33 0.27c-47.53,0.57 -101.88,13.63 -148.05,25.57 -10.32,2.83 -20.38,5.58 -30.71,8.07l0 0.28c-38.3,11.12 -76.06,25.31 -114.35,35.03 -3.78,5.29 -9.52,9.46 -17.65,11.68 -5.45,1.13 -10.86,2.8 -16.31,4.73 -35.84,30.36 -70.34,66.47 -95.06,108.19l0 0.02 0 0.01 -0.03 0.04 0 0.09 0 0 -0.02 0.04 0 0.02 0 0 0 0.08 0 0 -0.01 0.04 0 0.02 0 0.05 0 0.03 -0.04 0.04 0 0.04 0 0.03 0 0.02 -0.01 0.05 0 0.04 -0.02 0.13 0 0.02 -0.03 0.07 0 0.07 0 0.01 0 0.06 -0.04 0.21 0 0.03 -0.01 0.04 0 0.05 -0.02 0.17 -0.03 0.02 0 0.05 0 0.07 0 0 -0.02 0.09 0 0 0 0.07 -0.03 0.05 0 0 -0.02 0.07 0 0.02 0 0.05 -0.02 0.07 0 0 0 0.07 -0.01 0.05 0 0.03 0 0.07 -0.03 0.07 0 0.05 0 0.02 -0.02 0.07 -0.02 0.07 0 0.04 0 0.04 -0.03 0.07 0 0 0 0.07 0 0.04 -0.02 0.03 0 0.07 0 0 -0.01 0.07 0 0.05 0 0.02 -0.04 0.07 0 0 0 0.07 0 0.02 -0.01 0.05 0 0.07 -0.02 0 -0.03 0.22 -0.02 0.07 0 0 0 0.06 -0.02 0.1 0 0 -0.01 0.15 0 0.01 0 0.05 -0.04 0.05 0 0.02 0 0.02 0 0.03 0 0.02 0 0.02 -0.01 0.05 0 0.07 -0.02 0.07 0 0 0 0.04 0 0.03 -0.03 0 0 0.1 0 0.05 0 0 -0.02 0.02c-0.51,7.24 0,14.74 1.37,21.97l0 0.04 0 0.01 0 0.04 0.02 0.03 0 0.05 0 0 0.01 0.07 0 0.03 0 0.02 0 0.07 0 0.1 0.03 0.04 0 0.02 0.02 0.05 0 0.04 0.02 0.19 0.03 0.04 0 0.05 0 0.05 0 0.02 0 0.07 0 0.01 0.01 0.1 0.08 0.46 0 0 0.04 0.34 0 0.03 0.05 0.25 0 0 0.22 1.53 0 0.05 0.06 0.4 0 0 0.07 0.43 0 0.07 0.03 0.03 0 0.08 0 0.07 0.02 0.04 0 0.02 0 0.04 0 0.01 0.02 0.05 0 0.06 0 0.01 0 0.07 0.03 0.01 0 0.05 0 0.04 0 0.05 0 0 0.02 0.05 0 0.02 0 0 0 0.01 0.02 0.05c1.34,5.84 2.96,11.97 4.88,17.8 3.78,2.54 7.32,6.11 10.04,11.41 2.18,3.64 4.36,7.23 6.8,10.85 10.05,11.12 20.12,22.53 30.15,33.92 4.36,3.64 8.97,7.5 13.85,10.85l0.12 0 0.1 0 0.13 0 0.1 0 0.35 0c2.17,0.04 4.36,0.26 6.53,0.26 3.81,4.46 8.16,8.9 12.23,12.79 25.28,15.06 53.79,26.71 81.76,36.73l0.49 0.04 0.49 0.08 0.52 0.06 0.49 0.05 0.51 0.07 0 0 0.49 0.04 0 0.03 0.49 0.04 0 0c9.46,1.1 18.91,1.74 28.58,1.52 37.49,-0.57 73.88,-10.85 108.12,-27.25l34.76 -16.68 -20.92 -9.43c-14.13,-0.57 -28.53,-1.71 -42.9,-3.93 -17.93,-0.55 -35.33,-1.95 -52.18,-8.35l-0.11 0 -0.12 0 -0.4 0.03 -0.11 0 -0.14 0 -0.38 0 -0.14 0c-2.28,0.02 -4.76,0.04 -7,0.26 -1.08,-1.38 -2.17,-2.52 -3.25,-3.63l-0.19 0.03 -0.16 0.02 -0.18 0.02 -0.18 0.03 -0.18 0.02 0 0.02 -0.19 0 0 0.03 -0.17 0 0 0.02c-3.46,0.41 -7.11,0.37 -10.99,0.37 -3.04,-0.22 -5.46,-1.92 -6.77,-4.33l-0.08 -0.11 0 -0.03 -0.06 -0.12 0 0 -0.07 -0.13 0 -0.01 -0.05 -0.13 0 0 -0.07 -0.14 -0.05 -0.14 -0.07 -0.15 -0.04 -0.13 -0.05 -0.13 -0.02 0 0 -0.02 -0.04 0 -0.07 -0.03 -0.03 0 -0.02 -0.02 -0.04 0 -2.46 -0.7 -0.03 0 -0.06 -0.02 -0.03 0 -0.05 0 -0.04 -0.03 -0.02 0 -0.04 -0.02 -0.04 0 -0.01 0 -0.07 -0.05c-0.49,-0.26 -1.02,-0.5 -1.77,-0.76l-0.04 -0.03c-8.95,-2.22 -17.38,-5.84 -24.72,-12.23 -4.33,-1.35 -8.67,-3.61 -12.49,-6.39 -11.96,-5.55 -21.19,-13.06 -22,-23.36 -1.65,-1.63 -3.53,-3.06 -4.89,-4.73 1.9,-1.64 3.81,-2.78 5.98,-4.18 -5.98,-11.38 -3.82,-24.75 13.86,-35.87 20.9,-13.06 46.99,-19.48 70.06,-27.53 27.45,-10 55.43,-16.96 83.4,-23.91 8.16,-3.63 16.57,-7.79 24.73,-11.68 30.96,-4.43 62.47,-6.95 93.71,-7.5 48.89,-0.82 96.42,4.16 143.42,13.91 12.5,0.57 24.72,1.65 36.41,2.5 92.91,7.24 171.95,26.97 251.24,57.83 102.69,23.93 208.37,68.43 268.67,148.8 17.66,14.75 32.34,31.16 41.3,50.34 3.25,3.35 6.78,6.1 10.04,9.46 3.28,4.99 8.69,7.76 14.39,9.45 -1.09,1.69 -1.92,3.62 -2.72,5.29 29.35,24.21 24.73,88.14 12.78,144.89 3.49,0 7,-1.26 10.32,-2.66l0 0 0.38 -0.14 0 0 0.16 -0.07 0 0 0.19 -0.07 0.19 -0.07 0 -0.02 0.16 -0.07 0 0 0.19 -0.07 0.15 -0.07 0.19 -0.06 2.72 -1.13 2.16 -2.24c17.39,-17.52 32.32,-42.27 44.28,-64.24 12.23,-22.23 24.46,-44.48 36.41,-66.69zm1395.95 -277.83l144.23 -395.18 137.99 -2.25 -144.23 395.45 -137.99 1.98zm-377.85 -94.58l334.65 -5.02 -37.5 103.19 -472.89 6.94 144.23 -395.18 138.25 -2.22 -106.73 292.28zm-255.39 91.62c-27.44,12.47 -63.11,15.44 -90.7,15.44l-281.95 4.2c-22.18,0.24 -59.41,0.04 -82.18,-13.62l0 0 -1.22 -0.75 0 0 -1.21 -0.77 0 -0.02 -1.16 -0.8 0 0 -1.13 -0.85 0 0 -1.11 -0.86 0 0 -1.06 -0.9 0 -0.02 -1.04 -0.93 -0.99 -0.96 -0.96 -0.96c-10.6,-11.41 -13.85,-27.53 -12.5,-43.68 1.34,-14.15 5.43,-29.18 10.33,-42.53l104.31 -285.6 137.99 -2.22 -106.22 291.99 261.05 -3.88 106.47 -291.76 138.01 -2.21 -109.21 299.25c-11.12,30.31 -27.97,60.06 -54.31,76.46l-1.34 0.8 -1.34 0.8 -1.37 0.77 -1.4 0.74 -1.41 0.75 -1.43 0.7 0 0.03 -1.44 0.67 0 0 -1.46 0.67 0 0.03zm4910.22 -201.2c-11.44,-3.31 -21.73,-8.33 -28.8,-15.86 -20.36,-22.78 -11.41,-59.5 -1.92,-85.92l14.68 -39.47c11.13,-30.6 27.99,-59.82 54.34,-76.52 28.25,-17.78 70.35,-21.13 101.84,-21.69l253.19 -3.6c25.8,-0.55 70.6,-0.02 90.99,20.3 21.73,20.58 15.22,54.79 5.7,80.93l-6.25 19.2 -125.24 0.85 7.33 -23.39 -257.49 3.92 -15.49 42.27 254.25 -3.9c21.77,-0.28 57.99,-2.93 84.06,14.15l0 0.02 1.36 0.92 1.35 0.95 1.32 0.99 1.3 1.03 1.29 1.09 1.25 1.11 1.25 1.13c20.91,22.27 11.67,59.52 2.16,85.65l-18.2 49.54c-11.13,30.58 -27.99,59.76 -54.34,76.46 -28.51,17.51 -70.62,21.13 -102.67,21.69l-275.44 3.9c-26.09,0.56 -72.8,-0.03 -92.91,-21.71 -20.64,-22.78 -11.69,-59.79 -2.16,-85.95l7.06 -19.15 8.96 -1.4 0.54 -0.29 117.35 -2.77 -10.33 28.08 280.88 -4.15 16.85 -46.18 -254.24 3.61c-21.19,0.59 -38.03,1.11 -63.84,-5.84l0 -0.01zm0 0.01l0 -0.01 0 0.01zm-2100.06 535.91l68.44 -191.31 360.19 -4.76 -11.69 32.53 -278.13 3.64 -15.49 42.83 162.71 -2.22 -11.68 32.51 -162.46 2.22 -17.1 47.57 281.69 -3.62 -13.04 35.88 -363.45 4.73zm954.55 -12.53l68.44 -191.32 360.2 -4.44 -11.66 32.26 -278.18 3.63 -15.48 42.83 162.71 -1.93 -11.69 32.23 -162.44 2.25 -17.09 47.53 281.39 -3.63 -12.76 35.88 -363.45 4.73zm463.68 -6.93l68.47 -191.35 82.02 -1.11 -68.74 191.35 -81.75 1.11zm1060.47 -255.01l-21.98 63.38 -16.59 -0.53 -65.18 181.58 -212.97 2.51 11.13 -30.88 142.89 -1.66 50.27 -141.54 -19.03 0 -29.87 8.33 -30.42 12.5 -22.85 10.88 -26.86 13.62 -24.75 13.63 -35.85 24.17 -32.85 25.6 -31.79 30.3 -26.34 31.7 -29.07 38.38 -19.01 32.56 -16.86 35.87 -30.7 90.39 -4.33 54.5 -3 -6.95 -2.71 -82.06 12.77 -62.55 13.32 -36.44 30.14 -57.85 23.92 -35.32 26.33 -33.38 30.42 -29.75 25.83 -23.9 25.53 -18.65 40.75 -29.17 42.62 -24.19 36.7 -17.82 36.64 -12.78 41.31 -11.68 45.34 -8.64 32.87 -2.78 34.22 -1.37zm-2637.33 119.57c12.35,0 21.17,0.42 25.92,2.2l0 0 0.25 0.07 0 0.02 0.25 0.1 0 0 0.22 0.08 0 0 0.22 0.13 0.22 0.09 0.22 0.13 0.2 0.1 0.19 0.13c4.62,1.98 5.7,5.82 3.8,11.4l-7.34 20.32c-1.87,5.55 -5.96,9.43 -11.94,11.94l-0.28 0.1 -0.29 0.09 -0.31 0.1 -0.31 0.1 0 0.02 -0.31 0.1 -0.3 0.07 0 0.04 -0.31 0.07 0 0.02 -0.34 0.07 0 0.02c-6.12,1.69 -15.39,2.59 -27.99,2.83l-183.9 2.21 17.92 -50.33 184.2 -2.22zm8.95 66.18c24.07,0 43.27,-2.48 57.34,-7.07l0 -0.02 0.78 -0.24 0 0 0.75 -0.23 0 -0.03 0.72 -0.25 0 0 0.74 -0.27 0.73 -0.26 0.7 -0.26 0.72 -0.3 0.67 -0.29 0.69 -0.25c14.65,-6.11 24.43,-15.59 29.06,-28.66l15.23 -42.53c4.61,-12.79 1.63,-22.25 -8.72,-28.1 -10.3,-5.82 -29.33,-8.61 -57.58,-8.05l-300.7 3.91 -68.47 191.06 80.43 -0.84 26.61 -74.24 220.29 -3.06zm926.28 -78.69c12.59,0 21.49,0.43 26.37,2.09l0 0 0.26 0.07 0 0.04 0.23 0.07 0 0.02 0.25 0.07 0 0.02 0.24 0.07 0.2 0.1 0.24 0.11 0.21 0.1c4.34,2.24 5.67,6.13 3.52,11.41l-8.16 23.1c-2.17,5.84 -5.96,9.99 -11.94,12.21l-0.29 0.09 -0.31 0.13 -0.31 0.1 -0.3 0.09 0 0 -0.34 0.1 -0.33 0.09 0 0 -0.34 0.1 0 0 -0.31 0.09 0 0c-6.31,1.69 -15.54,2.6 -27.92,2.82l-184.17 2.24 19.02 -53.13 184.17 -2.21zm8.16 68.65c24.93,0 44.65,-2.87 58.86,-7.8l0 0 0.74 -0.28 0 0 0.74 -0.27 0 -0.02 0.72 -0.24 0 0 0.71 -0.28 0.7 -0.28 0.69 -0.28 0.69 -0.29c14.66,-6.1 24.43,-15.56 29.06,-28.63l16.02 -44.76c4.9,-13.08 1.91,-22.27 -8.42,-28.11 -10.58,-5.51 -29.87,-8.35 -57.86,-7.79l-300.97 3.93 -68.47 191.02 80.69 -0.79 25.78 -72.32 77.71 -0.84 115.71 70.06 117.62 -1.37 -136.65 -70.06 45.92 -0.59zm1106.66 -83.37c12.14,0 20.87,0.57 25.84,2.15l0 0.01 0.26 0.07 0 0 0.26 0.1 0 0 0.25 0.07 0 0.02 0.26 0.1 0.21 0.09 0.23 0.1 0 0 0.24 0.1 0.22 0.1 0.22 0.08c4.61,1.98 5.7,5.84 3.53,11.42l-8.15 23.08c-1.93,5.84 -5.96,9.73 -11.97,11.95 -5.96,2.53 -16.29,3.61 -30.4,3.61l-184.19 2.54 19.28 -53.13 183.91 -2.49zm108.39 -42.33c-10.32,-5.55 -29.34,-8.35 -57.61,-7.79l-300.68 3.64 -68.73 191.32 80.67 -0.79 25.81 -72.33 77.68 -1.11 115.74 70.36 117.59 -1.4 -136.61 -70.07 45.91 -0.55c27.97,-0.56 49.16,-3.65 63.85,-9.75 14.93,-6.11 24.43,-15.86 29.31,-28.63l15.76 -44.76c4.88,-13.07 1.92,-22.56 -8.69,-28.11z"/>
    </symbol>



</svg>